{
  "accessors": [
    {
      "bufferView": 2,
      "componentType": 5126,
      "count": 11128,
      "max": [
        1.0135159492492676,
        1.0159602165222168,
        1.0135159492492676
      ],
      "min": [
        -1.0135159492492676,
        -0.4346441924571991,
        -1.0135159492492676
      ],
      "type": "VEC3"
    },
    {
      "bufferView": 2,
      "byteOffset": 133536,
      "componentType": 5126,
      "count": 11128,
      "max": [
        0.9999617338180542,
        0.94348430633544922,
        0.9999617338180542
      ],
      "min": [
        -0.9999617338180542,
        -0.9167667031288147,
        -0.9999617338180542
      ],
      "type": "VEC3"
    },
    {
      "bufferView": 1,
      "componentType": 5126,
      "count": 11128,
      "max": [
        1.0000001192092896,
        1.0000001192092896
      ],
      "min": [
        0,
        0.63741487264633179
      ],
      "type": "VEC2"
    },
    {
      "bufferView": 0,
      "componentType": 5125,
      "count": 50688,
      "max": [
        11127
      ],
      "min": [
        0
      ],
      "type": "SCALAR"
    },
    {
      "bufferView": 2,
      "byteOffset": 267072,
      "componentType": 5126,
      "count": 10642,
      "max": [
        0.43621459603309631,
        -0.41634684801101685,
        0.43621507287025452
      ],
      "min": [
        -0.43621522188186646,
        -1.067757248878479,
        -0.43621474504470825
      ],
      "type": "VEC3"
    },
    {
      "bufferView": 2,
      "byteOffset": 394776,
      "componentType": 5126,
      "count": 10642,
      "max": [
        1,
        1,
        1
      ],
      "min": [
        -1,
        -1,
        -1
      ],
      "type": "VEC3"
    },
    {
      "bufferView": 1,
      "byteOffset": 89024,
      "componentType": 5126,
      "count": 10642,
      "max": [
        1.0000001192092896,
        1.0000081062316895
      ],
      "min": [
        0,
        -0.015999194234609604
      ],
      "type": "VEC2"
    },
    {
      "bufferView": 0,
      "byteOffset": 202752,
      "componentType": 5125,
      "count": 38640,
      "max": [
        10641
      ],
      "min": [
        0
      ],
      "type": "SCALAR"
    },
    {
      "bufferView": 2,
      "byteOffset": 522480,
      "componentType": 5126,
      "count": 2281,
      "max": [
        0.20199529826641083,
        -1.0357571840286255,
        0.20199599862098694
      ],
      "min": [
        -0.20199626684188843,
        -1.0677597522735596,
        -0.20199556648731232
      ],
      "type": "VEC3"
    },
    {
      "bufferView": 2,
      "byteOffset": 549852,
      "componentType": 5126,
      "count": 2281,
      "max": [
        0.036928128451108932,
        1,
        0.036928128451108932
      ],
      "min": [
        -0.036928128451108932,
        -1,
        -0.036928128451108932
      ],
      "type": "VEC3"
    },
    {
      "bufferView": 1,
      "byteOffset": 174160,
      "componentType": 5126,
      "count": 2281,
      "max": [
        0.95306509733200073,
        0.50000053644180298
      ],
      "min": [
        8.4464605606626719e-05,
        0.49999991059303284
      ],
      "type": "VEC2"
    },
    {
      "bufferView": 0,
      "byteOffset": 357312,
      "componentType": 5125,
      "count": 5376,
      "max": [
        2280
      ],
      "min": [
        0
      ],
      "type": "SCALAR"
    },
    {
      "bufferView": 2,
      "byteOffset": 577224,
      "componentType": 5126,
      "count": 28174,
      "max": [
        1.1215829849243164,
        2.271249532699585,
        1.1215833425521851
      ],
      "min": [
        -1.1215827465057373,
        0.93190759420394897,
        -1.1215822696685791
      ],
      "type": "VEC3"
    },
    {
      "bufferView": 2,
      "byteOffset": 915312,
      "componentType": 5126,
      "count": 28174,
      "max": [
        1,
        1,
        1
      ],
      "min": [
        -1,
        -1,
        -1
      ],
      "type": "VEC3"
    },
    {
      "bufferView": 1,
      "byteOffset": 192408,
      "componentType": 5126,
      "count": 28174,
      "max": [
        1.0000001192092896,
        1.0000001192092896
      ],
      "min": [
        0,
        0.31249982118606567
      ],
      "type": "VEC2"
    },
    {
      "bufferView": 0,
      "byteOffset": 378816,
      "componentType": 5125,
      "count": 139776,
      "max": [
        28173
      ],
      "min": [
        0
      ],
      "type": "SCALAR"
    }
  ],
  "asset": {
    "extras": {
      "author": "kwstasg (https://sketchfab.com/kwstasg)",
      "license": "CC-BY-4.0 (http://creativecommons.org/licenses/by/4.0/)",
      "source": "https://sketchfab.com/3d-models/led-lightbulb-ca4c2ca3ed354ec8b30bb8caa91b53a6",
      "title": "LED Lightbulb"
    },
    "generator": "Sketchfab-9.80.0",
    "version": "2.0"
  },
  "bufferViews": [
    {
      "buffer": 0,
      "byteLength": 937920,
      "byteOffset": 0,
      "name": "floatBufferViews",
      "target": 34963
    },
    {
      "buffer": 0,
      "byteLength": 417800,
      "byteOffset": 937920,
      "byteStride": 8,
      "name": "floatBufferViews",
      "target": 34962
    },
    {
      "buffer": 0,
      "byteLength": 1253400,
      "byteOffset": 1355720,
      "byteStride": 12,
      "name": "floatBufferViews",
      "target": 34962
    }
  ],
  "buffers": [
    {
      "byteLength": 2609120,
      "uri": "scene.bin"
    }
  ],
  "materials": [
    {
      "doubleSided": true,
      "emissiveFactor": [
        0,
        0,
        0
      ],
      "name": "Plastic",
      "pbrMetallicRoughness": {
        "baseColorFactor": [
          0.57047224704959598,
          0.57047224704959598,
          0.57047224704959598,
          1
        ],
        "metallicFactor": 0.12331351196882087,
        "roughnessFactor": 0.38419246180131206
      }
    },
    {
      "doubleSided": true,
      "emissiveFactor": [
        0,
        0,
        0
      ],
      "name": "Metal",
      "pbrMetallicRoughness": {
        "baseColorFactor": [
          0.80000000000000004,
          0.80000000000000004,
          0.80000000000000004,
          1
        ],
        "metallicFactor": 1,
        "roughnessFactor": 0.22667645574545964
      }
    },
    {
      "doubleSided": true,
      "emissiveFactor": [
        0,
        0,
        0
      ],
      "name": "Plastic_Black",
      "pbrMetallicRoughness": {
        "baseColorFactor": [
          0.037351000000000002,
          0.029693299999999999,
          0.034105099999999999,
          1
        ],
        "metallicFactor": 0.25362299999999999,
        "roughnessFactor": 0.297101
      }
    },
    {
      "alphaMode": "BLEND",
      "doubleSided": true,
      "emissiveFactor": [
        0,
        0,
        0
      ],
      "name": "Glass",
      "pbrMetallicRoughness": {
        "baseColorFactor": [
          0.80000000000000004,
          0.80000000000000004,
          0.80000000000000004,
          0.5063644212587175
        ],
        "metallicFactor": 0,
        "roughnessFactor": 0.35815599999999997
      }
    }
  ],
  "meshes": [
    {
      "primitives": [
        {
          "attributes": {
            "NORMAL": 1,
            "POSITION": 0,
            "TEXCOORD_0": 2
          },
          "indices": 3,
          "material": 0,
          "mode": 4
        }
      ]
    },
    {
      "primitives": [
        {
          "attributes": {
            "NORMAL": 5,
            "POSITION": 4,
            "TEXCOORD_0": 6
          },
          "indices": 7,
          "material": 1,
          "mode": 4
        }
      ]
    },
    {
      "primitives": [
        {
          "attributes": {
            "NORMAL": 9,
            "POSITION": 8,
            "TEXCOORD_0": 10
          },
          "indices": 11,
          "material": 2,
          "mode": 4
        }
      ]
    },
    {
      "primitives": [
        {
          "attributes": {
            "NORMAL": 13,
            "POSITION": 12,
            "TEXCOORD_0": 14
          },
          "indices": 15,
          "material": 3,
          "mode": 4
        }
      ]
    }
  ],
  "nodes": [
    {
      "children": [
        1
      ],
      "name": "RootNode (gltf orientation matrix)",
      "rotation": [
        -0.70710678118654746,
        -0,
        -0,
        0.70710678118654757
      ]
    },
    {
      "children": [
        2
      ],
      "matrix": [
        0.05000000074505806,
        0,
        0,
        0,
        0,
        0.05000000074505806,
        0,
        0,
        0,
        0,
        0.05000000074505806,
        0,
        0,
        0,
        0,
        1
      ],
      "name": "RootNode (model correction matrix)"
    },
    {
      "children": [
        3
      ],
      "name": "root"
    },
    {
      "children": [
        4
      ],
      "matrix": [
        1,
        0,
        0,
        0,
        0,
        2.2204460492503131e-16,
        1,
        0,
        0,
        -1,
        2.2204460492503131e-16,
        0,
        0,
        0,
        0,
        1
      ],
      "name": "GLTF_SceneRootNode"
    },
    {
      "children": [
        5,
        6,
        7,
        8
      ],
      "matrix": [
        0.86826115846633911,
        0,
        0,
        0,
        0,
        1.1351174116134644,
        0,
        0,
        0,
        0,
        0.86826115846633911,
        0,
        0,
        -1.6010311841964722,
        0,
        1
      ],
      "name": "Lightbulb_0"
    },
    {
      "mesh": 0,
      "name": ""
    },
    {
      "mesh": 1,
      "name": ""
    },
    {
      "mesh": 2,
      "name": ""
    },
    {
      "mesh": 3,
      "name": ""
    }
  ],
  "scene": 0,
  "scenes": [
    {
      "name": "OSG_Scene",
      "nodes": [
        0
      ]
    }
  ]
}

